<mxfile>
    <diagram id="q0pYhbCOgRVCxrIjT_xp" name="flowChart">
        <mxGraphModel dx="917" dy="549" grid="1" gridSize="10" guides="1" tooltips="1" connect="1" arrows="1" fold="1" page="1" pageScale="1" pageWidth="850" pageHeight="1100" background="#F4F1DE" math="0" shadow="0">
            <root>
                <mxCell id="0"/>
                <mxCell id="1" parent="0"/>
                <mxCell id="10" value="" style="edgeStyle=orthogonalEdgeStyle;rounded=0;orthogonalLoop=1;jettySize=auto;html=1;labelBackgroundColor=#F4F1DE;strokeColor=#E07A5F;fontColor=#393C56;" edge="1" parent="1" source="2" target="3">
                    <mxGeometry relative="1" as="geometry"/>
                </mxCell>
                <mxCell id="2" value="User" style="ellipse;whiteSpace=wrap;html=1;fillColor=#F2CC8F;strokeColor=#E07A5F;fontColor=#393C56;" parent="1" vertex="1">
                    <mxGeometry x="362.5" y="10" width="95" height="50" as="geometry"/>
                </mxCell>
                <mxCell id="8" value="" style="edgeStyle=orthogonalEdgeStyle;rounded=0;orthogonalLoop=1;jettySize=auto;html=1;labelBackgroundColor=#F4F1DE;strokeColor=#E07A5F;fontColor=#393C56;" edge="1" parent="1" source="3" target="7">
                    <mxGeometry relative="1" as="geometry"/>
                </mxCell>
                <mxCell id="5DaQOj_4B5hNuedUCV_i-21" style="edgeStyle=orthogonalEdgeStyle;rounded=0;orthogonalLoop=1;jettySize=auto;html=1;exitX=1;exitY=0.5;exitDx=0;exitDy=0;entryX=0;entryY=0.5;entryDx=0;entryDy=0;labelBackgroundColor=#F4F1DE;strokeColor=#E07A5F;fontColor=#393C56;" edge="1" parent="1" source="3" target="4">
                    <mxGeometry relative="1" as="geometry">
                        <Array as="points">
                            <mxPoint x="530" y="140"/>
                            <mxPoint x="530" y="290"/>
                        </Array>
                    </mxGeometry>
                </mxCell>
                <mxCell id="3" value="have the loggind Credential?&amp;nbsp;" style="rhombus;whiteSpace=wrap;html=1;fillColor=#F2CC8F;strokeColor=#E07A5F;fontColor=#393C56;" vertex="1" parent="1">
                    <mxGeometry x="355" y="85" width="110" height="110" as="geometry"/>
                </mxCell>
                <mxCell id="4" value="Home page" style="whiteSpace=wrap;html=1;fillColor=#F2CC8F;strokeColor=#E07A5F;fontColor=#393C56;" vertex="1" parent="1">
                    <mxGeometry x="600" y="260" width="120" height="60" as="geometry"/>
                </mxCell>
                <mxCell id="6" value="Yes" style="text;html=1;align=center;verticalAlign=middle;resizable=0;points=[];autosize=1;strokeColor=none;fontColor=#393C56;" vertex="1" parent="1">
                    <mxGeometry x="473" y="120" width="30" height="20" as="geometry"/>
                </mxCell>
                <mxCell id="12" value="" style="edgeStyle=orthogonalEdgeStyle;rounded=0;orthogonalLoop=1;jettySize=auto;html=1;labelBackgroundColor=#F4F1DE;strokeColor=#E07A5F;fontColor=#393C56;" edge="1" parent="1" source="7" target="11">
                    <mxGeometry relative="1" as="geometry"/>
                </mxCell>
                <mxCell id="7" value="Welcome page" style="whiteSpace=wrap;html=1;fillColor=#F2CC8F;strokeColor=#E07A5F;fontColor=#393C56;" vertex="1" parent="1">
                    <mxGeometry x="170" y="110" width="120" height="60" as="geometry"/>
                </mxCell>
                <mxCell id="9" value="No" style="text;html=1;align=center;verticalAlign=middle;resizable=0;points=[];autosize=1;strokeColor=none;fontColor=#393C56;" vertex="1" parent="1">
                    <mxGeometry x="325" y="120" width="30" height="20" as="geometry"/>
                </mxCell>
                <mxCell id="14" value="" style="edgeStyle=orthogonalEdgeStyle;rounded=0;orthogonalLoop=1;jettySize=auto;html=1;exitX=0.5;exitY=1;exitDx=0;exitDy=0;labelBackgroundColor=#F4F1DE;strokeColor=#E07A5F;fontColor=#393C56;" edge="1" parent="1" source="11" target="13">
                    <mxGeometry relative="1" as="geometry"/>
                </mxCell>
                <mxCell id="05yLbrMcovLJtdeDx0sc-16" value="" style="edgeStyle=orthogonalEdgeStyle;rounded=0;orthogonalLoop=1;jettySize=auto;html=1;labelBackgroundColor=#F4F1DE;strokeColor=#E07A5F;fontColor=#393C56;" edge="1" parent="1" source="11" target="05yLbrMcovLJtdeDx0sc-15">
                    <mxGeometry relative="1" as="geometry"/>
                </mxCell>
                <mxCell id="11" value="Login clicked?" style="rhombus;whiteSpace=wrap;html=1;fillColor=#F2CC8F;strokeColor=#E07A5F;fontColor=#393C56;" vertex="1" parent="1">
                    <mxGeometry x="185" y="220" width="90" height="80" as="geometry"/>
                </mxCell>
                <mxCell id="5DaQOj_4B5hNuedUCV_i-15" style="edgeStyle=orthogonalEdgeStyle;rounded=0;orthogonalLoop=1;jettySize=auto;html=1;exitX=0.5;exitY=1;exitDx=0;exitDy=0;entryX=0.5;entryY=0;entryDx=0;entryDy=0;labelBackgroundColor=#F4F1DE;strokeColor=#E07A5F;fontColor=#393C56;" edge="1" parent="1" source="13" target="eeVlxVGBMVqwxjBzxcrC-19">
                    <mxGeometry relative="1" as="geometry"/>
                </mxCell>
                <mxCell id="13" value="Login Page" style="whiteSpace=wrap;html=1;fillColor=#F2CC8F;strokeColor=#E07A5F;fontColor=#393C56;" vertex="1" parent="1">
                    <mxGeometry x="280" y="340" width="120" height="60" as="geometry"/>
                </mxCell>
                <mxCell id="15" value="Yes" style="text;html=1;align=center;verticalAlign=middle;resizable=0;points=[];autosize=1;strokeColor=none;fontColor=#393C56;" vertex="1" parent="1">
                    <mxGeometry x="260" y="300" width="30" height="20" as="geometry"/>
                </mxCell>
                <mxCell id="GXaSIbU1FZ4rfARC9MyY-18" value="" style="edgeStyle=orthogonalEdgeStyle;rounded=0;orthogonalLoop=1;jettySize=auto;html=1;labelBackgroundColor=#F4F1DE;strokeColor=#E07A5F;fontColor=#393C56;" edge="1" parent="1" source="05yLbrMcovLJtdeDx0sc-15" target="GXaSIbU1FZ4rfARC9MyY-17">
                    <mxGeometry relative="1" as="geometry"/>
                </mxCell>
                <mxCell id="05yLbrMcovLJtdeDx0sc-15" value="Register page" style="whiteSpace=wrap;html=1;fillColor=#F2CC8F;strokeColor=#E07A5F;fontColor=#393C56;" vertex="1" parent="1">
                    <mxGeometry x="80" y="340" width="120" height="60" as="geometry"/>
                </mxCell>
                <mxCell id="05yLbrMcovLJtdeDx0sc-17" value="No" style="text;html=1;align=center;verticalAlign=middle;resizable=0;points=[];autosize=1;strokeColor=none;fontColor=#393C56;" vertex="1" parent="1">
                    <mxGeometry x="155" y="300" width="30" height="20" as="geometry"/>
                </mxCell>
                <mxCell id="5DaQOj_4B5hNuedUCV_i-16" style="edgeStyle=orthogonalEdgeStyle;rounded=0;orthogonalLoop=1;jettySize=auto;html=1;exitX=1;exitY=0.5;exitDx=0;exitDy=0;entryX=1;entryY=0.5;entryDx=0;entryDy=0;labelBackgroundColor=#F4F1DE;strokeColor=#E07A5F;fontColor=#393C56;" edge="1" parent="1" source="eeVlxVGBMVqwxjBzxcrC-19" target="13">
                    <mxGeometry relative="1" as="geometry">
                        <Array as="points">
                            <mxPoint x="450" y="460"/>
                            <mxPoint x="450" y="370"/>
                        </Array>
                    </mxGeometry>
                </mxCell>
                <mxCell id="5DaQOj_4B5hNuedUCV_i-20" style="edgeStyle=orthogonalEdgeStyle;rounded=0;orthogonalLoop=1;jettySize=auto;html=1;exitX=0.5;exitY=1;exitDx=0;exitDy=0;labelBackgroundColor=#F4F1DE;strokeColor=#E07A5F;fontColor=#393C56;" edge="1" parent="1" source="eeVlxVGBMVqwxjBzxcrC-19">
                    <mxGeometry relative="1" as="geometry">
                        <mxPoint x="340" y="530" as="targetPoint"/>
                    </mxGeometry>
                </mxCell>
                <mxCell id="eeVlxVGBMVqwxjBzxcrC-19" value="Is successfully loged?&amp;nbsp;" style="rhombus;whiteSpace=wrap;html=1;fillColor=#F2CC8F;strokeColor=#E07A5F;fontColor=#393C56;" vertex="1" parent="1">
                    <mxGeometry x="287.5" y="420" width="105" height="80" as="geometry"/>
                </mxCell>
                <mxCell id="GXaSIbU1FZ4rfARC9MyY-19" style="edgeStyle=orthogonalEdgeStyle;rounded=0;orthogonalLoop=1;jettySize=auto;html=1;exitX=0;exitY=0.5;exitDx=0;exitDy=0;entryX=0;entryY=0.5;entryDx=0;entryDy=0;labelBackgroundColor=#F4F1DE;strokeColor=#E07A5F;fontColor=#393C56;" edge="1" parent="1" source="GXaSIbU1FZ4rfARC9MyY-17" target="05yLbrMcovLJtdeDx0sc-15">
                    <mxGeometry relative="1" as="geometry"/>
                </mxCell>
                <mxCell id="5DaQOj_4B5hNuedUCV_i-18" style="edgeStyle=orthogonalEdgeStyle;rounded=0;orthogonalLoop=1;jettySize=auto;html=1;exitX=0.5;exitY=1;exitDx=0;exitDy=0;entryX=0;entryY=0.5;entryDx=0;entryDy=0;labelBackgroundColor=#F4F1DE;strokeColor=#E07A5F;fontColor=#393C56;" edge="1" parent="1" source="GXaSIbU1FZ4rfARC9MyY-17" target="4">
                    <mxGeometry relative="1" as="geometry">
                        <Array as="points">
                            <mxPoint x="140" y="525"/>
                            <mxPoint x="530" y="525"/>
                            <mxPoint x="530" y="290"/>
                        </Array>
                    </mxGeometry>
                </mxCell>
                <mxCell id="GXaSIbU1FZ4rfARC9MyY-17" value="Registration&lt;br&gt;Succesfull?" style="rhombus;whiteSpace=wrap;html=1;fillColor=#F2CC8F;strokeColor=#E07A5F;fontColor=#393C56;" vertex="1" parent="1">
                    <mxGeometry x="95" y="415" width="90" height="90" as="geometry"/>
                </mxCell>
                <mxCell id="GXaSIbU1FZ4rfARC9MyY-20" value="No" style="text;html=1;align=center;verticalAlign=middle;resizable=0;points=[];autosize=1;strokeColor=none;fontColor=#393C56;" vertex="1" parent="1">
                    <mxGeometry x="60" y="440" width="30" height="20" as="geometry"/>
                </mxCell>
                <mxCell id="GXaSIbU1FZ4rfARC9MyY-22" value="yes" style="text;html=1;align=center;verticalAlign=middle;resizable=0;points=[];autosize=1;strokeColor=none;fontColor=#393C56;" vertex="1" parent="1">
                    <mxGeometry x="110" y="505" width="30" height="20" as="geometry"/>
                </mxCell>
                <mxCell id="eeVlxVGBMVqwxjBzxcrC-21" value="Yes" style="text;html=1;align=center;verticalAlign=middle;resizable=0;points=[];autosize=1;strokeColor=none;fontColor=#393C56;" vertex="1" parent="1">
                    <mxGeometry x="340" y="500" width="30" height="20" as="geometry"/>
                </mxCell>
                <mxCell id="5DaQOj_4B5hNuedUCV_i-17" value="No" style="text;html=1;align=center;verticalAlign=middle;resizable=0;points=[];autosize=1;strokeColor=none;fontColor=#393C56;" vertex="1" parent="1">
                    <mxGeometry x="400" y="440" width="30" height="20" as="geometry"/>
                </mxCell>
            </root>
        </mxGraphModel>
    </diagram>
    <diagram id="G3IsFuQx762CIW0WiS6a" name="Page-2">
        <mxGraphModel grid="1" gridSize="10" guides="1" tooltips="1" connect="1" arrows="1" page="1" fold="1" pageScale="1" pageWidth="850" pageHeight="1100" background="#F4F1DE" math="0" shadow="0">
            <root>
                <mxCell id="eQjjeZO19NA7GSJIMFAE-0"/>
                <mxCell id="eQjjeZO19NA7GSJIMFAE-1" parent="eQjjeZO19NA7GSJIMFAE-0"/>
                <mxCell id="OKNcm-kvmDMQyIZAt5VD-3" style="edgeStyle=orthogonalEdgeStyle;rounded=0;orthogonalLoop=1;jettySize=auto;html=1;labelBackgroundColor=#F4F1DE;strokeColor=#E07A5F;fontColor=#393C56;" edge="1" parent="eQjjeZO19NA7GSJIMFAE-1" source="OKNcm-kvmDMQyIZAt5VD-0" target="OKNcm-kvmDMQyIZAt5VD-1">
                    <mxGeometry relative="1" as="geometry"/>
                </mxCell>
                <mxCell id="OKNcm-kvmDMQyIZAt5VD-4" style="edgeStyle=orthogonalEdgeStyle;rounded=0;orthogonalLoop=1;jettySize=auto;html=1;entryX=0.577;entryY=-0.05;entryDx=0;entryDy=0;entryPerimeter=0;labelBackgroundColor=#F4F1DE;strokeColor=#E07A5F;fontColor=#393C56;" edge="1" parent="eQjjeZO19NA7GSJIMFAE-1" source="OKNcm-kvmDMQyIZAt5VD-0" target="OKNcm-kvmDMQyIZAt5VD-2">
                    <mxGeometry relative="1" as="geometry"/>
                </mxCell>
                <mxCell id="OKNcm-kvmDMQyIZAt5VD-0" value="&lt;u&gt;Welcome&lt;/u&gt;&lt;br&gt;&lt;br&gt;Sign up and Sign in" style="rounded=1;whiteSpace=wrap;html=1;fillColor=#F2CC8F;strokeColor=#E07A5F;fontColor=#393C56;" vertex="1" parent="eQjjeZO19NA7GSJIMFAE-1">
                    <mxGeometry x="370" y="60" width="120" height="60" as="geometry"/>
                </mxCell>
                <mxCell id="OKNcm-kvmDMQyIZAt5VD-11" style="edgeStyle=orthogonalEdgeStyle;rounded=0;orthogonalLoop=1;jettySize=auto;html=1;labelBackgroundColor=#F4F1DE;strokeColor=#E07A5F;fontColor=#393C56;" edge="1" parent="eQjjeZO19NA7GSJIMFAE-1" source="OKNcm-kvmDMQyIZAt5VD-1">
                    <mxGeometry relative="1" as="geometry">
                        <mxPoint x="300" y="290" as="targetPoint"/>
                    </mxGeometry>
                </mxCell>
                <mxCell id="OKNcm-kvmDMQyIZAt5VD-1" value="&lt;u&gt;Sign up form&lt;/u&gt;" style="rounded=1;whiteSpace=wrap;html=1;fillColor=#F2CC8F;strokeColor=#E07A5F;fontColor=#393C56;" vertex="1" parent="eQjjeZO19NA7GSJIMFAE-1">
                    <mxGeometry x="240" y="160" width="120" height="60" as="geometry"/>
                </mxCell>
                <mxCell id="OKNcm-kvmDMQyIZAt5VD-8" style="edgeStyle=orthogonalEdgeStyle;rounded=0;orthogonalLoop=1;jettySize=auto;html=1;entryX=0.5;entryY=0;entryDx=0;entryDy=0;labelBackgroundColor=#F4F1DE;strokeColor=#E07A5F;fontColor=#393C56;" edge="1" parent="eQjjeZO19NA7GSJIMFAE-1" source="OKNcm-kvmDMQyIZAt5VD-2" target="OKNcm-kvmDMQyIZAt5VD-5">
                    <mxGeometry relative="1" as="geometry"/>
                </mxCell>
                <mxCell id="OKNcm-kvmDMQyIZAt5VD-2" value="&lt;u&gt;Login form&lt;/u&gt;" style="rounded=1;whiteSpace=wrap;html=1;fillColor=#F2CC8F;strokeColor=#E07A5F;fontColor=#393C56;" vertex="1" parent="eQjjeZO19NA7GSJIMFAE-1">
                    <mxGeometry x="500" y="160" width="120" height="60" as="geometry"/>
                </mxCell>
                <mxCell id="OKNcm-kvmDMQyIZAt5VD-9" style="edgeStyle=orthogonalEdgeStyle;rounded=0;orthogonalLoop=1;jettySize=auto;html=1;entryX=-0.021;entryY=0.444;entryDx=0;entryDy=0;entryPerimeter=0;labelBackgroundColor=#F4F1DE;strokeColor=#E07A5F;fontColor=#393C56;" edge="1" parent="eQjjeZO19NA7GSJIMFAE-1" source="OKNcm-kvmDMQyIZAt5VD-5" target="OKNcm-kvmDMQyIZAt5VD-7">
                    <mxGeometry relative="1" as="geometry"/>
                </mxCell>
                <mxCell id="U_h5zcTb4qyq2AIon8Hc-3" style="edgeStyle=orthogonalEdgeStyle;rounded=0;orthogonalLoop=1;jettySize=auto;html=1;entryX=0;entryY=0.5;entryDx=0;entryDy=0;labelBackgroundColor=#F4F1DE;strokeColor=#E07A5F;fontColor=#393C56;" edge="1" parent="eQjjeZO19NA7GSJIMFAE-1" target="U_h5zcTb4qyq2AIon8Hc-2">
                    <mxGeometry relative="1" as="geometry">
                        <Array as="points">
                            <mxPoint x="630" y="280"/>
                            <mxPoint x="630" y="200"/>
                            <mxPoint x="830" y="200"/>
                            <mxPoint x="830" y="230"/>
                        </Array>
                        <mxPoint x="730" y="190" as="targetPoint"/>
                        <mxPoint x="620" y="280" as="sourcePoint"/>
                    </mxGeometry>
                </mxCell>
                <mxCell id="QbKXmJh18ktAHE_9HtAl-1" style="edgeStyle=orthogonalEdgeStyle;rounded=0;orthogonalLoop=1;jettySize=auto;html=1;entryX=1;entryY=0;entryDx=0;entryDy=0;labelBackgroundColor=#F4F1DE;strokeColor=#E07A5F;fontColor=#393C56;" edge="1" parent="eQjjeZO19NA7GSJIMFAE-1" source="OKNcm-kvmDMQyIZAt5VD-5" target="QbKXmJh18ktAHE_9HtAl-0">
                    <mxGeometry relative="1" as="geometry">
                        <Array as="points">
                            <mxPoint x="565" y="370"/>
                            <mxPoint x="370" y="370"/>
                        </Array>
                    </mxGeometry>
                </mxCell>
                <mxCell id="OKNcm-kvmDMQyIZAt5VD-5" value="&lt;b&gt;Dashboard&lt;/b&gt;&lt;br&gt;navigation bar&lt;br&gt;Search bar&lt;br&gt;bodim cards&lt;br&gt;Add bordim button" style="rounded=1;whiteSpace=wrap;html=1;fillColor=#F2CC8F;strokeColor=#E07A5F;fontColor=#393C56;" vertex="1" parent="eQjjeZO19NA7GSJIMFAE-1">
                    <mxGeometry x="500" y="271" width="130" height="79" as="geometry"/>
                </mxCell>
                <mxCell id="OKNcm-kvmDMQyIZAt5VD-6" value="&lt;b&gt;&lt;u&gt;default page for a bodima&lt;/u&gt;&lt;br&gt;&lt;/b&gt;&lt;br&gt;bodim contacts&lt;br&gt;more pics&lt;br&gt;ratings(comments etc)&lt;br&gt;add comments&lt;br&gt;Owner contacts&lt;br&gt;advance neede&lt;br&gt;expected fee&lt;br&gt;description" style="rounded=1;whiteSpace=wrap;html=1;fillColor=#F2CC8F;strokeColor=#E07A5F;fontColor=#393C56;" vertex="1" parent="eQjjeZO19NA7GSJIMFAE-1">
                    <mxGeometry x="440" y="400" width="190" height="150" as="geometry"/>
                </mxCell>
                <mxCell id="U_h5zcTb4qyq2AIon8Hc-0" style="edgeStyle=orthogonalEdgeStyle;rounded=0;orthogonalLoop=1;jettySize=auto;html=1;labelBackgroundColor=#F4F1DE;strokeColor=#E07A5F;fontColor=#393C56;" edge="1" parent="eQjjeZO19NA7GSJIMFAE-1" source="OKNcm-kvmDMQyIZAt5VD-7">
                    <mxGeometry relative="1" as="geometry">
                        <mxPoint x="631" y="498" as="targetPoint"/>
                        <Array as="points">
                            <mxPoint x="765" y="498"/>
                        </Array>
                    </mxGeometry>
                </mxCell>
                <mxCell id="OKNcm-kvmDMQyIZAt5VD-7" value="&lt;u&gt;&lt;b&gt;bodim card&lt;/b&gt;&lt;/u&gt;&lt;br&gt;navigation bar&lt;br&gt;basic information&lt;br&gt;no_of students&lt;br&gt;gents |ladies&lt;br&gt;where??&lt;br&gt;one pic&lt;br&gt;no of toilets&lt;br&gt;ratings summary&lt;br&gt;more info button" style="rounded=1;whiteSpace=wrap;html=1;fillColor=#F2CC8F;strokeColor=#E07A5F;fontColor=#393C56;" vertex="1" parent="eQjjeZO19NA7GSJIMFAE-1">
                    <mxGeometry x="690" y="270" width="150" height="140" as="geometry"/>
                </mxCell>
                <mxCell id="OKNcm-kvmDMQyIZAt5VD-13" style="edgeStyle=orthogonalEdgeStyle;rounded=0;orthogonalLoop=1;jettySize=auto;html=1;entryX=0;entryY=0.5;entryDx=0;entryDy=0;labelBackgroundColor=#F4F1DE;strokeColor=#E07A5F;fontColor=#393C56;" edge="1" parent="eQjjeZO19NA7GSJIMFAE-1" source="OKNcm-kvmDMQyIZAt5VD-12" target="OKNcm-kvmDMQyIZAt5VD-2">
                    <mxGeometry relative="1" as="geometry"/>
                </mxCell>
                <mxCell id="OKNcm-kvmDMQyIZAt5VD-12" value="Verification" style="rounded=1;whiteSpace=wrap;html=1;fillColor=#F2CC8F;strokeColor=#E07A5F;fontColor=#393C56;" vertex="1" parent="eQjjeZO19NA7GSJIMFAE-1">
                    <mxGeometry x="240" y="290" width="120" height="60" as="geometry"/>
                </mxCell>
                <mxCell id="U_h5zcTb4qyq2AIon8Hc-2" value="&lt;b&gt;Add bordim form&lt;/b&gt;&lt;br&gt;bodim place name&lt;br&gt;photos&amp;nbsp;&lt;br&gt;location&lt;br&gt;contacts details&lt;br&gt;bodim fee&lt;br&gt;bordim details&amp;nbsp;&lt;br&gt;specifications&amp;nbsp;&lt;br&gt;&lt;br&gt;" style="rounded=1;whiteSpace=wrap;html=1;fillColor=#F2CC8F;strokeColor=#E07A5F;fontColor=#393C56;" vertex="1" parent="eQjjeZO19NA7GSJIMFAE-1">
                    <mxGeometry x="860" y="160" width="130" height="140" as="geometry"/>
                </mxCell>
                <mxCell id="QbKXmJh18ktAHE_9HtAl-0" value="&lt;u&gt;User profile&lt;/u&gt;" style="rounded=1;whiteSpace=wrap;html=1;fillColor=#F2CC8F;strokeColor=#E07A5F;fontColor=#393C56;" vertex="1" parent="eQjjeZO19NA7GSJIMFAE-1">
                    <mxGeometry x="250" y="410" width="120" height="60" as="geometry"/>
                </mxCell>
            </root>
        </mxGraphModel>
    </diagram>
    <diagram id="A3YTiiWzhbUl7AKHLU-L" name="AddPostPage">
        <mxGraphModel dx="917" dy="549" grid="1" gridSize="10" guides="1" tooltips="1" connect="1" arrows="1" fold="1" page="1" pageScale="1" pageWidth="827" pageHeight="1169" math="0" shadow="0">
            <root>
                <mxCell id="1F8w91tE7g5cAaTQqBNI-0"/>
                <mxCell id="1F8w91tE7g5cAaTQqBNI-1" parent="1F8w91tE7g5cAaTQqBNI-0"/>
                <mxCell id="1F8w91tE7g5cAaTQqBNI-3" value="" style="rounded=0;whiteSpace=wrap;html=1;" vertex="1" parent="1F8w91tE7g5cAaTQqBNI-1">
                    <mxGeometry x="350" y="90" width="260" height="440" as="geometry"/>
                </mxCell>
                <mxCell id="1F8w91tE7g5cAaTQqBNI-4" value="" style="rounded=1;whiteSpace=wrap;html=1;" vertex="1" parent="1F8w91tE7g5cAaTQqBNI-1">
                    <mxGeometry x="450" y="150" width="140" height="30" as="geometry"/>
                </mxCell>
                <mxCell id="1F8w91tE7g5cAaTQqBNI-5" value="&lt;h1&gt;&lt;font style=&quot;font-size: 20px&quot; face=&quot;Georgia&quot; color=&quot;#66b2ff&quot;&gt;ADD YOUR PLACE&lt;/font&gt;&lt;/h1&gt;" style="text;html=1;strokeColor=none;fillColor=none;align=center;verticalAlign=middle;whiteSpace=wrap;rounded=0;" vertex="1" parent="1F8w91tE7g5cAaTQqBNI-1">
                    <mxGeometry x="370" y="100" width="220" height="30" as="geometry"/>
                </mxCell>
                <mxCell id="JvpuEBvt8qrRAwQRvqH0-0" value="&lt;font style=&quot;font-size: 14px&quot;&gt;Place Name&lt;/font&gt;" style="text;html=1;strokeColor=none;fillColor=none;align=center;verticalAlign=middle;whiteSpace=wrap;rounded=0;" vertex="1" parent="1F8w91tE7g5cAaTQqBNI-1">
                    <mxGeometry x="360" y="150" width="80" height="30" as="geometry"/>
                </mxCell>
                <mxCell id="NO0Q8OM6CLDh9BZgvlAn-0" value="&lt;font style=&quot;font-size: 14px&quot;&gt;Location&lt;/font&gt;" style="text;html=1;strokeColor=none;fillColor=none;align=center;verticalAlign=middle;whiteSpace=wrap;rounded=0;" vertex="1" parent="1F8w91tE7g5cAaTQqBNI-1">
                    <mxGeometry x="360" y="190" width="80" height="30" as="geometry"/>
                </mxCell>
                <mxCell id="NO0Q8OM6CLDh9BZgvlAn-1" value="" style="rounded=1;whiteSpace=wrap;html=1;" vertex="1" parent="1F8w91tE7g5cAaTQqBNI-1">
                    <mxGeometry x="450" y="190" width="140" height="30" as="geometry"/>
                </mxCell>
            </root>
        </mxGraphModel>
    </diagram>
    <diagram id="xdYLjTr2qFSAvqirmTtr" name="mongodb_database">
        <mxGraphModel grid="1" gridSize="10" guides="1" tooltips="1" connect="1" arrows="1" page="1" fold="1" pageScale="1" pageWidth="827" pageHeight="1169" background="#F4F1DE" math="0" shadow="0">
            <root>
                <mxCell id="xH7o9LRCJBnV9tw6vB_Q-0"/>
                <mxCell id="xH7o9LRCJBnV9tw6vB_Q-1" parent="xH7o9LRCJBnV9tw6vB_Q-0"/>
                <mxCell id="3XBfLTswSFKNz-K9X422-0" value="Bodim" style="swimlane;fontStyle=0;childLayout=stackLayout;horizontal=1;startSize=26;fillColor=none;horizontalStack=0;resizeParent=1;resizeParentMax=0;resizeLast=0;collapsible=1;marginBottom=0;strokeColor=#E07A5F;fontColor=#393C56;rounded=1;" vertex="1" parent="xH7o9LRCJBnV9tw6vB_Q-1">
                    <mxGeometry x="560" y="120" width="140" height="182" as="geometry">
                        <mxRectangle x="560" y="120" width="70" height="26" as="alternateBounds"/>
                    </mxGeometry>
                </mxCell>
                <mxCell id="3XBfLTswSFKNz-K9X422-2" value="id" style="text;strokeColor=none;fillColor=none;align=left;verticalAlign=top;spacingLeft=4;spacingRight=4;overflow=hidden;rotatable=0;points=[[0,0.5],[1,0.5]];portConstraint=eastwest;fontColor=#393C56;rounded=1;" vertex="1" parent="3XBfLTswSFKNz-K9X422-0">
                    <mxGeometry y="26" width="140" height="26" as="geometry"/>
                </mxCell>
                <mxCell id="3XBfLTswSFKNz-K9X422-3" value="Name" style="text;strokeColor=none;fillColor=none;align=left;verticalAlign=top;spacingLeft=4;spacingRight=4;overflow=hidden;rotatable=0;points=[[0,0.5],[1,0.5]];portConstraint=eastwest;fontColor=#393C56;rounded=1;" vertex="1" parent="3XBfLTswSFKNz-K9X422-0">
                    <mxGeometry y="52" width="140" height="26" as="geometry"/>
                </mxCell>
                <mxCell id="2kuEF_K9-dPDF0whMsmX-0" value="location" style="text;strokeColor=none;fillColor=none;align=left;verticalAlign=top;spacingLeft=4;spacingRight=4;overflow=hidden;rotatable=0;points=[[0,0.5],[1,0.5]];portConstraint=eastwest;fontColor=#393C56;rounded=1;" vertex="1" parent="3XBfLTswSFKNz-K9X422-0">
                    <mxGeometry y="78" width="140" height="26" as="geometry"/>
                </mxCell>
                <mxCell id="PQbOs33VdHvhZBcCPTUW-1" value="contact" style="text;strokeColor=none;fillColor=none;align=left;verticalAlign=top;spacingLeft=4;spacingRight=4;overflow=hidden;rotatable=0;points=[[0,0.5],[1,0.5]];portConstraint=eastwest;fontColor=#393C56;rounded=1;" vertex="1" parent="3XBfLTswSFKNz-K9X422-0">
                    <mxGeometry y="104" width="140" height="26" as="geometry"/>
                </mxCell>
                <mxCell id="PQbOs33VdHvhZBcCPTUW-2" value="fee" style="text;strokeColor=none;fillColor=none;align=left;verticalAlign=top;spacingLeft=4;spacingRight=4;overflow=hidden;rotatable=0;points=[[0,0.5],[1,0.5]];portConstraint=eastwest;fontColor=#393C56;rounded=1;" vertex="1" parent="3XBfLTswSFKNz-K9X422-0">
                    <mxGeometry y="130" width="140" height="26" as="geometry"/>
                </mxCell>
                <mxCell id="Tr2Y3TOWo_lXkxNRc5fr-0" value="Photos" style="text;strokeColor=none;fillColor=none;align=left;verticalAlign=top;spacingLeft=4;spacingRight=4;overflow=hidden;rotatable=0;points=[[0,0.5],[1,0.5]];portConstraint=eastwest;fontColor=#393C56;rounded=1;" vertex="1" parent="3XBfLTswSFKNz-K9X422-0">
                    <mxGeometry y="156" width="140" height="26" as="geometry"/>
                </mxCell>
                <mxCell id="xH7o9LRCJBnV9tw6vB_Q-3" value="User" style="swimlane;fontStyle=0;childLayout=stackLayout;horizontal=1;startSize=26;horizontalStack=0;resizeParent=1;resizeParentMax=0;resizeLast=0;collapsible=1;marginBottom=0;fillColor=#F2CC8F;strokeColor=#E07A5F;fontColor=#393C56;rounded=1;" vertex="1" parent="xH7o9LRCJBnV9tw6vB_Q-1">
                    <mxGeometry x="120" y="120" width="140" height="156" as="geometry"/>
                </mxCell>
                <mxCell id="xH7o9LRCJBnV9tw6vB_Q-9" value="user id (Object ID)" style="text;strokeColor=none;fillColor=none;align=left;verticalAlign=top;spacingLeft=4;spacingRight=4;overflow=hidden;rotatable=0;points=[[0,0.5],[1,0.5]];portConstraint=eastwest;fontColor=#393C56;rounded=1;" vertex="1" parent="xH7o9LRCJBnV9tw6vB_Q-3">
                    <mxGeometry y="26" width="140" height="26" as="geometry"/>
                </mxCell>
                <mxCell id="xH7o9LRCJBnV9tw6vB_Q-4" value="Display Name" style="text;strokeColor=none;fillColor=none;align=left;verticalAlign=top;spacingLeft=4;spacingRight=4;overflow=hidden;rotatable=0;points=[[0,0.5],[1,0.5]];portConstraint=eastwest;fontColor=#393C56;rounded=1;" vertex="1" parent="xH7o9LRCJBnV9tw6vB_Q-3">
                    <mxGeometry y="52" width="140" height="26" as="geometry"/>
                </mxCell>
                <mxCell id="xH7o9LRCJBnV9tw6vB_Q-6" value="email" style="text;strokeColor=none;fillColor=none;align=left;verticalAlign=top;spacingLeft=4;spacingRight=4;overflow=hidden;rotatable=0;points=[[0,0.5],[1,0.5]];portConstraint=eastwest;fontColor=#393C56;rounded=1;" vertex="1" parent="xH7o9LRCJBnV9tw6vB_Q-3">
                    <mxGeometry y="78" width="140" height="26" as="geometry"/>
                </mxCell>
                <mxCell id="GnBDJm9XizuP5dvmLj9H-1" value="password" style="text;strokeColor=none;fillColor=none;align=left;verticalAlign=top;spacingLeft=4;spacingRight=4;overflow=hidden;rotatable=0;points=[[0,0.5],[1,0.5]];portConstraint=eastwest;fontColor=#393C56;rounded=1;" vertex="1" parent="xH7o9LRCJBnV9tw6vB_Q-3">
                    <mxGeometry y="104" width="140" height="26" as="geometry"/>
                </mxCell>
                <mxCell id="xH7o9LRCJBnV9tw6vB_Q-20" value="profile_picture" style="text;strokeColor=none;fillColor=none;align=left;verticalAlign=top;spacingLeft=4;spacingRight=4;overflow=hidden;rotatable=0;points=[[0,0.5],[1,0.5]];portConstraint=eastwest;fontColor=#393C56;rounded=1;" vertex="1" parent="xH7o9LRCJBnV9tw6vB_Q-3">
                    <mxGeometry y="130" width="140" height="26" as="geometry"/>
                </mxCell>
                <mxCell id="xH7o9LRCJBnV9tw6vB_Q-13" value="Post(feedback)" style="swimlane;fontStyle=0;childLayout=stackLayout;horizontal=1;startSize=26;horizontalStack=0;resizeParent=1;resizeParentMax=0;resizeLast=0;collapsible=1;marginBottom=0;fillColor=#F2CC8F;strokeColor=#E07A5F;fontColor=#393C56;rounded=1;" vertex="1" parent="xH7o9LRCJBnV9tw6vB_Q-1">
                    <mxGeometry x="320" y="120" width="140" height="156" as="geometry"/>
                </mxCell>
                <mxCell id="xH7o9LRCJBnV9tw6vB_Q-14" value="Post id" style="text;strokeColor=none;fillColor=none;align=left;verticalAlign=top;spacingLeft=4;spacingRight=4;overflow=hidden;rotatable=0;points=[[0,0.5],[1,0.5]];portConstraint=eastwest;fontColor=#393C56;rounded=1;" vertex="1" parent="xH7o9LRCJBnV9tw6vB_Q-13">
                    <mxGeometry y="26" width="140" height="26" as="geometry"/>
                </mxCell>
                <mxCell id="xH7o9LRCJBnV9tw6vB_Q-15" value="user id" style="text;strokeColor=none;fillColor=none;align=left;verticalAlign=top;spacingLeft=4;spacingRight=4;overflow=hidden;rotatable=0;points=[[0,0.5],[1,0.5]];portConstraint=eastwest;fontColor=#393C56;rounded=1;" vertex="1" parent="xH7o9LRCJBnV9tw6vB_Q-13">
                    <mxGeometry y="52" width="140" height="26" as="geometry"/>
                </mxCell>
                <mxCell id="xH7o9LRCJBnV9tw6vB_Q-16" value="bodim id" style="text;strokeColor=none;fillColor=none;align=left;verticalAlign=top;spacingLeft=4;spacingRight=4;overflow=hidden;rotatable=0;points=[[0,0.5],[1,0.5]];portConstraint=eastwest;fontColor=#393C56;rounded=1;" vertex="1" parent="xH7o9LRCJBnV9tw6vB_Q-13">
                    <mxGeometry y="78" width="140" height="26" as="geometry"/>
                </mxCell>
                <mxCell id="YsUQGUYQmgo-U6DQCz4E-0" value="comment" style="text;strokeColor=none;fillColor=none;align=left;verticalAlign=top;spacingLeft=4;spacingRight=4;overflow=hidden;rotatable=0;points=[[0,0.5],[1,0.5]];portConstraint=eastwest;fontColor=#393C56;rounded=1;" vertex="1" parent="xH7o9LRCJBnV9tw6vB_Q-13">
                    <mxGeometry y="104" width="140" height="26" as="geometry"/>
                </mxCell>
                <mxCell id="YsUQGUYQmgo-U6DQCz4E-1" value="rating star (no of stars)" style="text;strokeColor=none;fillColor=none;align=left;verticalAlign=top;spacingLeft=4;spacingRight=4;overflow=hidden;rotatable=0;points=[[0,0.5],[1,0.5]];portConstraint=eastwest;fontColor=#393C56;rounded=1;" vertex="1" parent="xH7o9LRCJBnV9tw6vB_Q-13">
                    <mxGeometry y="130" width="140" height="26" as="geometry"/>
                </mxCell>
                <mxCell id="xH7o9LRCJBnV9tw6vB_Q-18" style="edgeStyle=orthogonalEdgeStyle;orthogonalLoop=1;jettySize=auto;html=1;entryX=0;entryY=0.5;entryDx=0;entryDy=0;strokeColor=#E07A5F;fontColor=#393C56;labelBackgroundColor=#F4F1DE;" edge="1" parent="xH7o9LRCJBnV9tw6vB_Q-1" source="xH7o9LRCJBnV9tw6vB_Q-9" target="xH7o9LRCJBnV9tw6vB_Q-15">
                    <mxGeometry relative="1" as="geometry"/>
                </mxCell>
                <mxCell id="GnBDJm9XizuP5dvmLj9H-0" style="edgeStyle=orthogonalEdgeStyle;orthogonalLoop=1;jettySize=auto;html=1;exitX=0;exitY=0.5;exitDx=0;exitDy=0;entryX=0.997;entryY=0.792;entryDx=0;entryDy=0;entryPerimeter=0;strokeColor=#E07A5F;fontColor=#393C56;labelBackgroundColor=#F4F1DE;" edge="1" parent="xH7o9LRCJBnV9tw6vB_Q-1" source="3XBfLTswSFKNz-K9X422-2" target="xH7o9LRCJBnV9tw6vB_Q-16">
                    <mxGeometry relative="1" as="geometry"/>
                </mxCell>
                <mxCell id="GnBDJm9XizuP5dvmLj9H-3" style="edgeStyle=orthogonalEdgeStyle;orthogonalLoop=1;jettySize=auto;html=1;exitX=0.5;exitY=1;exitDx=0;exitDy=0;entryX=0.5;entryY=0;entryDx=0;entryDy=0;strokeColor=#E07A5F;fontColor=#393C56;labelBackgroundColor=#F4F1DE;" edge="1" parent="xH7o9LRCJBnV9tw6vB_Q-1" source="GnBDJm9XizuP5dvmLj9H-2" target="xH7o9LRCJBnV9tw6vB_Q-3">
                    <mxGeometry relative="1" as="geometry"/>
                </mxCell>
                <mxCell id="GnBDJm9XizuP5dvmLj9H-4" style="edgeStyle=orthogonalEdgeStyle;orthogonalLoop=1;jettySize=auto;html=1;exitX=0.5;exitY=1;exitDx=0;exitDy=0;entryX=0.671;entryY=-0.019;entryDx=0;entryDy=0;entryPerimeter=0;strokeColor=#E07A5F;fontColor=#393C56;labelBackgroundColor=#F4F1DE;" edge="1" parent="xH7o9LRCJBnV9tw6vB_Q-1" source="GnBDJm9XizuP5dvmLj9H-2" target="xH7o9LRCJBnV9tw6vB_Q-13">
                    <mxGeometry relative="1" as="geometry"/>
                </mxCell>
                <mxCell id="GnBDJm9XizuP5dvmLj9H-5" style="edgeStyle=orthogonalEdgeStyle;orthogonalLoop=1;jettySize=auto;html=1;exitX=0.5;exitY=1;exitDx=0;exitDy=0;entryX=0.554;entryY=-0.01;entryDx=0;entryDy=0;entryPerimeter=0;strokeColor=#E07A5F;fontColor=#393C56;labelBackgroundColor=#F4F1DE;" edge="1" parent="xH7o9LRCJBnV9tw6vB_Q-1" source="GnBDJm9XizuP5dvmLj9H-2" target="3XBfLTswSFKNz-K9X422-0">
                    <mxGeometry relative="1" as="geometry"/>
                </mxCell>
                <mxCell id="GnBDJm9XizuP5dvmLj9H-2" value="" style="shape=datastore;whiteSpace=wrap;html=1;fillColor=#F2CC8F;strokeColor=#E07A5F;fontColor=#393C56;rounded=1;" vertex="1" parent="xH7o9LRCJBnV9tw6vB_Q-1">
                    <mxGeometry x="384" y="10" width="60" height="60" as="geometry"/>
                </mxCell>
            </root>
        </mxGraphModel>
    </diagram>
</mxfile>